<svg xmlns="http://www.w3.org/2000/svg" fill-rule="evenodd" viewBox="0 0 100 100">
    <path d="m85.309 54.327-22.768-3.308L52.36 30.39a1.498 1.498 0 0 0-2.69 0L39.49 51.019l-22.768 3.308a1.5 1.5 0 0 0-.831 2.559l16.473 16.057-3.888 22.674a1.5 1.5 0 0 0 2.177 1.582l20.361-10.706 20.364 10.706a1.504 1.504 0 0 0 1.58-.114c.462-.336.693-.905.597-1.468l-3.892-22.674 16.475-16.057a1.501 1.501 0 0 0-.829-2.559zM67.007 71.345a1.5 1.5 0 0 0-.432 1.328l3.511 20.455-18.372-9.658a1.504 1.504 0 0 0-1.396 0l-18.369 9.658 3.507-20.455a1.5 1.5 0 0 0-.432-1.328L20.164 56.86l20.54-2.984a1.5 1.5 0 0 0 1.129-.82l9.184-18.61 9.185 18.61a1.5 1.5 0 0 0 1.129.82l20.54 2.984-14.864 14.485zM25.549 38.009a1.501 1.501 0 0 0 .635-2.859l-15.767-7.367a1.5 1.5 0 1 0-1.269 2.719l15.767 7.367c.205.095.421.14.634.14zm66.027-9.502a1.504 1.504 0 0 0-1.994-.725l-15.767 7.367a1.501 1.501 0 0 0 .635 2.859c.213 0 .429-.045.634-.141L90.851 30.5a1.498 1.498 0 0 0 .725-1.993zm-40.56-5.523a1.5 1.5 0 0 0 1.5-1.5V4.131a1.5 1.5 0 1 0-3 0v17.353a1.5 1.5 0 0 0 1.5 1.5z"/>
</svg>
