<svg xmlns="http://www.w3.org/2000/svg" fill-rule="evenodd" viewBox="0 0 100 100">
    <path d="M84.01 16.455h-7.105V9.709a1.5 1.5 0 0 0-1.5-1.5H15.989a1.5 1.5 0 0 0-1.5 1.5v16.49a1.5 1.5 0 0 0 1.5 1.5h59.416a1.5 1.5 0 0 0 1.5-1.5v-6.744h5.605v16.06l-36.141 8.72a1.5 1.5 0 0 0-1.148 1.458v7.493h-3.827a1.5 1.5 0 0 0-1.5 1.5v35.606a1.5 1.5 0 0 0 1.5 1.5h10.654a1.5 1.5 0 0 0 1.5-1.5V54.686a1.5 1.5 0 0 0-1.5-1.5h-3.827v-6.312l36.141-8.72a1.5 1.5 0 0 0 1.148-1.458V17.955a1.5 1.5 0 0 0-1.5-1.5zm-10.104 8.244H17.49v-13.49h56.416v13.49zM50.549 88.792h-7.654V56.186h7.654v32.606z"/>
</svg>
