<?xml version="1.0" encoding="UTF-8"?> <svg xmlns="http://www.w3.org/2000/svg" width="2471" height="1005" viewBox="0 0 2471 1005" fill="none"><path d="M277.119 662.185L249.216 668.937C245.095 645.619 233.508 633.963 214.415 633.963C200.875 633.963 190.424 640.002 183.063 652.093C176.276 663.182 172.862 678.322 172.862 697.484C172.862 719.272 177.273 735.803 186.089 747.141C193.375 756.421 202.829 761.075 214.415 761.075C234.146 761.075 246.301 749.274 250.885 725.671L278.047 733.989C269.584 766.837 248.295 783.258 214.201 783.258C190.882 783.258 172.723 774.836 159.745 757.951C148.158 742.915 142.362 722.831 142.362 697.768C142.362 668.978 149.862 646.83 164.863 631.366C177.557 618.324 194.012 611.78 214.201 611.78C232.117 611.78 246.695 616.864 257.963 626.996C267.527 635.667 273.92 647.398 277.119 662.185Z" fill="white"></path><path d="M358.453 614.765H384.896V684.222C384.896 702.179 384.188 722.367 382.728 744.868H385.713C391.903 725.706 399.224 706.764 407.721 688.1L442.058 614.765H485.386V780.272H458.943V700.115C458.943 678.611 459.442 658.666 460.398 640.362H457.482C450.266 658.202 442.342 676.403 433.741 694.997L393.642 780.272H358.453V614.765Z" fill="white"></path><path d="M576.532 738.893C581.117 721.052 583.389 696.806 583.389 666.201V614.765H693.866V780.272H665.146V636.733H612.145V666.63C612.145 696.487 609.803 721.336 605.143 741.17C601.555 757.307 596.118 768.471 588.901 774.725C582.392 780.417 573.153 783.257 561.207 783.257C556.338 783.257 551.608 783.008 546.954 782.51L545.673 760.043C549.8 760.721 553.388 761.075 556.518 761.075C566.116 761.075 572.759 753.685 576.532 738.893Z" fill="white"></path><path d="M865.807 614.765L916.849 780.272H886.743L872.705 731.682H821.871L807.618 780.272H780.318L831.041 614.765H865.807ZM867.587 710.317L857.913 676.762C856.672 672.032 853.403 658.452 848.105 636.026H846.256C842.703 651.519 839.289 665.03 836.02 676.548L827.094 710.317H867.587Z" fill="white"></path><path d="M1177.73 614.765V637.979H1097.75V780.272H1068.67V614.765H1177.73Z" fill="white"></path><path d="M1277.47 614.765H1335.91C1375.26 614.765 1394.95 630.548 1394.95 662.15C1394.95 678.571 1389.09 691.05 1377.36 699.513C1366.87 707.013 1352.47 710.74 1334.13 710.74H1306.23V780.272H1277.47V614.765ZM1306.23 636.31V689.201H1333.31C1355.03 689.201 1365.91 680.246 1365.91 662.329C1365.91 644.981 1355.39 636.31 1334.34 636.31H1306.23Z" fill="white"></path><path d="M1566.46 614.765L1617.51 780.272H1587.4L1573.36 731.682H1522.53L1508.27 780.272H1480.97L1531.7 614.765H1566.46ZM1568.24 710.317L1558.57 676.762C1557.33 672.032 1554.06 658.452 1548.76 636.026H1546.92C1543.36 651.519 1539.95 665.03 1536.67 676.548L1527.75 710.317H1568.24Z" fill="white"></path><path d="M1825.39 614.765V780.272H1796.84V705.587H1727.88V780.272H1699.37V614.765H1727.88V682.164H1796.84V614.765H1825.39Z" fill="white"></path><path d="M1912.23 614.765H1938.67V684.222C1938.67 702.179 1937.96 722.367 1936.5 744.868H1939.49C1945.67 725.706 1953 706.764 1961.5 688.1L1995.83 614.765H2039.16V780.272H2012.72V700.115C2012.72 678.611 2013.21 658.666 2014.17 640.362H2011.26C2004.04 658.202 1996.12 676.403 1987.52 694.997L1947.42 780.272H1912.23V614.765Z" fill="white"></path><path d="M2252.44 614.765V637.979H2203.17V780.272H2174.13V637.979H2125.29V614.765H2252.44Z" fill="white"></path><path d="M2419.58 614.765L2470.62 780.272H2440.52L2426.48 731.682H2375.65L2361.39 780.272H2334.09L2384.82 614.765H2419.58ZM2421.36 710.317L2411.69 676.762C2410.45 672.032 2407.18 658.452 2401.88 636.026H2400.03C2396.48 651.519 2393.06 665.03 2389.79 676.548L2380.87 710.317H2421.36Z" fill="white"></path><path d="M54.9074 842.982H0.375977V897.514H8.16618V850.773H47.1172V897.514H54.9074V842.982Z" fill="white"></path><path d="M140.605 866.353C140.605 870.637 137.099 874.143 132.815 874.143H101.649V850.773H132.815C137.099 850.773 140.605 854.279 140.605 858.563V866.353ZM148.396 858.563C148.158 849.915 141.15 842.982 132.815 842.982H93.8643V897.514H101.649V881.933H132.815C141.539 881.933 148.396 874.613 148.396 866.353V858.563Z" fill="white"></path><path d="M231.752 881.933C231.752 886.217 228.245 889.724 223.962 889.724H200.591C196.302 889.724 192.801 886.217 192.801 881.933V858.563C192.801 854.279 196.302 850.773 200.591 850.773H223.962C228.245 850.773 231.752 854.279 231.752 858.563V881.933ZM239.542 858.563C239.542 850.071 232.216 842.982 223.962 842.982H200.591C192.018 842.982 185.011 849.996 185.011 858.563V881.933C185.011 890.582 191.943 897.514 200.591 897.514H223.962C232.529 897.514 239.542 890.506 239.542 881.933V858.563Z" fill="white"></path><path d="M277.717 897.514H285.507L324.458 853.497V897.514H332.248V842.982H324.458L285.507 886.217V842.982H277.717V897.514Z" fill="white"></path><path d="M393.01 874.143H408.591C412.88 874.143 416.381 877.65 416.381 881.933C416.381 886.217 412.88 889.724 408.591 889.724H385.22C380.937 889.724 377.43 886.217 377.43 881.933H369.64C369.877 890.738 376.729 897.514 385.22 897.514H408.591C417.32 897.514 424.177 890.193 424.177 881.933C424.177 877.262 422.38 873.367 418.873 870.248C422.38 867.13 424.177 863.235 424.177 858.563C424.177 849.915 416.775 842.982 408.591 842.982H385.22C376.497 842.982 369.64 850.303 369.64 858.563H377.43C377.43 854.279 380.937 850.773 385.22 850.773H408.591C412.88 850.773 416.381 854.279 416.381 858.563C416.381 862.846 412.88 866.353 408.591 866.353H393.01V874.143Z" fill="white"></path><path d="M501.296 897.514C510.026 897.282 516.877 890.35 516.877 881.933C516.877 877.262 515.086 873.367 511.585 870.248C515.086 867.13 516.877 863.235 516.877 858.563C516.877 849.915 509.481 842.982 501.296 842.982H462.345V897.514H501.296ZM501.296 874.143C505.586 874.143 509.087 877.65 509.087 881.933C509.087 886.217 505.586 889.724 501.296 889.724H470.136V874.143H501.296ZM470.136 850.773H501.296C505.586 850.773 509.087 854.279 509.087 858.563C509.087 862.846 505.586 866.353 501.296 866.353H470.136V850.773Z" fill="white"></path><path d="M601.016 881.933C601.016 886.217 597.509 889.724 593.225 889.724H569.855C565.571 889.724 562.065 886.217 562.065 881.933V858.563C562.065 854.279 565.571 850.773 569.855 850.773H593.225C597.509 850.773 601.016 854.279 601.016 858.563V881.933ZM608.806 858.563C608.806 850.071 601.485 842.982 593.225 842.982H569.855C561.282 842.982 554.274 849.996 554.274 858.563V881.933C554.274 890.582 561.207 897.514 569.855 897.514H593.225C601.792 897.514 608.806 890.506 608.806 881.933V858.563Z" fill="white"></path><path d="M658.666 858.563C658.666 854.279 662.172 850.773 666.456 850.773H697.617V889.724H658.666V858.563ZM643.085 897.514H713.197V889.724H705.407V842.982H666.456C657.732 842.982 650.875 850.303 650.875 858.563V889.724H643.085V897.514Z" fill="white"></path><path d="M763.057 842.982C754.333 843.214 747.476 850.147 747.476 858.563V881.933C747.476 890.738 754.722 897.514 763.057 897.514H786.427C795.151 897.514 802.008 890.193 802.008 881.933H794.217C794.217 886.217 790.711 889.724 786.427 889.724H763.057C758.773 889.724 755.266 886.217 755.266 881.933V858.563C755.266 854.279 758.773 850.773 763.057 850.773H786.427C790.711 850.773 794.217 854.279 794.217 858.563H802.008C801.776 849.915 794.762 842.982 786.427 842.982H763.057Z" fill="white"></path><path d="M890.042 850.773V842.982H835.504V850.773H858.881V897.514H866.671V850.773H890.042Z" fill="white"></path><path d="M964.048 897.514C972.772 897.282 979.629 890.35 979.629 881.933C979.629 877.262 977.838 873.367 974.331 870.248C977.838 867.13 979.629 863.235 979.629 858.563C979.629 849.915 972.227 842.982 964.048 842.982H925.097V897.514H964.048ZM964.048 874.143C968.332 874.143 971.839 877.65 971.839 881.933C971.839 886.217 968.332 889.724 964.048 889.724H932.888V874.143H964.048ZM932.888 850.773H964.048C968.332 850.773 971.839 854.279 971.839 858.563C971.839 862.846 968.332 866.353 964.048 866.353H932.888V850.773Z" fill="white"></path><path d="M1025.59 850.773H1072.33V842.982H1017.8V897.514H1072.33V889.724H1025.59V874.143H1064.54V866.353H1025.59V850.773Z" fill="white"></path><path d="M1117.52 842.982H1109.73V897.514H1117.52V874.143H1156.47V897.514H1164.26V842.982H1156.47V866.353H1117.52V842.982Z" fill="white"></path><path d="M1211 842.982H1203.21V897.514H1211V874.143H1249.96V897.514H1257.75V842.982H1249.96V866.353H1211V842.982Z" fill="white"></path><path d="M1335.65 850.773C1339.94 850.773 1343.44 854.279 1343.44 858.563V874.143H1304.49V858.563C1304.49 854.279 1307.99 850.773 1312.28 850.773H1335.65ZM1351.23 858.563C1351 849.915 1343.99 842.982 1335.65 842.982H1312.28C1303.55 842.982 1296.7 850.303 1296.7 858.563V897.514H1304.49V881.933H1343.44V897.514H1351.23V858.563Z" fill="white"></path><path d="M1397.98 858.563C1397.98 854.279 1401.48 850.773 1405.77 850.773H1436.93V874.143H1405.77C1401.48 874.143 1397.98 870.637 1397.98 866.353V858.563ZM1411.3 881.933H1436.93V897.514H1444.72V842.982H1405.77C1397.04 842.982 1390.19 850.303 1390.19 858.563V866.353C1390.19 873.285 1394.78 879.128 1401.01 881.157L1390.19 891.984V897.514H1395.72L1411.3 881.933Z" fill="white"></path><path d="M421.447 950.469H410.463L387.092 973.839H374.706V950.469H366.916V1005H374.706V981.63H387.092L410.463 1005H421.447L394.181 977.734L421.447 950.469Z" fill="white"></path><path d="M502.467 989.42C502.467 993.709 498.961 997.21 494.677 997.21H471.306C467.017 997.21 463.516 993.709 463.516 989.42V966.049C463.516 961.766 467.017 958.259 471.306 958.259H494.677C498.961 958.259 502.467 961.766 502.467 966.049V989.42ZM510.257 966.049C510.257 957.558 502.931 950.469 494.677 950.469H471.306C462.734 950.469 455.726 957.482 455.726 966.049V989.42C455.726 998.068 462.658 1005 471.306 1005H494.677C503.244 1005 510.257 997.992 510.257 989.42V966.049Z" fill="white"></path><path d="M579.593 998.149L602.963 964.415V1005H610.754V950.469H602.963L579.593 984.203L556.222 950.469H548.432V1005H556.222V964.415L579.593 998.149Z" fill="white"></path><path d="M704.236 950.469H649.705V1005H657.495V958.259H696.446V1005H704.236V950.469Z" fill="white"></path><path d="M782.144 958.259C786.427 958.259 789.934 961.766 789.934 966.049V981.63H750.983V966.049C750.983 961.766 754.484 958.259 758.773 958.259H782.144ZM797.724 966.049C797.486 957.401 790.479 950.469 782.144 950.469H758.773C750.044 950.469 743.193 957.795 743.193 966.049V1005H750.983V989.42H789.934V1005H797.724V966.049Z" fill="white"></path><path d="M844.465 950.469H836.675V1005H844.465V981.63H883.416V1005H891.207V950.469H883.416V973.839H844.465V950.469Z" fill="white"></path><path d="M930.163 1005H937.954L976.905 960.989V1005H984.695V950.469H976.905L937.954 993.709V950.469H930.163V1005Z" fill="white"></path><path d="M1031.44 966.049C1031.44 961.766 1034.94 958.259 1039.23 958.259H1070.39V981.63H1039.23C1034.94 981.63 1031.44 978.129 1031.44 973.839V966.049ZM1044.76 989.42H1070.39V1005H1078.18V950.469H1039.23C1030.5 950.469 1023.65 957.795 1023.65 966.049V973.839C1023.65 980.777 1028.24 986.62 1034.47 988.643L1023.65 999.47V1005H1029.18L1044.76 989.42Z" fill="white"></path><path fill-rule="evenodd" clip-rule="evenodd" d="M907.32 443.989C891.815 440.633 874.832 433.973 856.365 423.998C788.433 376.99 733.154 346.426 690.528 332.318C661.807 319.375 629.441 295.97 593.423 262.102C532.991 333.454 478.674 382.868 430.472 410.348C413.066 417.541 396.082 423.071 379.517 426.925C350.767 432.281 321.606 453.414 292.033 490.319C240.8 513.18 191.45 534.962 143.979 555.661C241.449 529.085 298.653 511.209 315.584 502.022C330.944 489.624 346.489 473.208 362.215 452.771C388.397 455.304 410.666 462.456 429.028 474.223C449.24 456.388 464.305 442.082 474.216 431.313C469.173 468.415 458.439 496.701 442.006 516.165C484.024 482.477 511.741 457.773 525.166 442.042C535.106 425.395 547.122 396.79 561.218 356.216C570.11 340.01 578.445 335.46 586.218 342.56C588.467 388.536 596.802 416.335 611.211 425.946C626.815 442.5 633.063 467.209 629.962 500.068C638.529 510.548 647.821 520.141 657.843 528.841C657.327 519.451 652.684 503.523 643.902 481.051C646.447 464.346 650.933 450.528 657.356 439.602C631.829 404.175 622.375 375.408 629 353.289C635.353 344.705 680.86 375.101 765.514 444.482C756.907 421.378 747.778 397.161 738.115 371.82C807.485 419.378 845.619 455.304 852.522 479.59C865.929 480.367 877.145 477.277 886.17 470.328C880.994 486.818 866.572 505.187 842.906 525.427C890.453 510.113 921.057 495.321 934.719 481.051C944.092 471.319 954.664 458.48 966.442 442.529C1004.21 456.828 1039.62 480.726 1072.68 514.211C1097.6 538.857 1131.09 557.388 1173.14 569.803C1163.8 560.541 1157.71 550.629 1154.87 540.057C1219.77 572.406 1272.65 590.45 1313.5 594.183C1125.94 507.911 1012.82 435.254 974.134 376.208C954.253 405.496 931.983 428.096 907.32 443.989Z" fill="white"></path><path fill-rule="evenodd" clip-rule="evenodd" d="M974.424 333.976C983.785 342.56 988.462 346.855 988.462 346.855C1062.12 409.502 1166.33 475.284 1301.11 544.19C1307.61 544.19 1310.86 544.19 1310.86 544.19C1309.37 525.242 1308.63 515.765 1308.63 515.765C1330.42 503.587 1341.32 497.495 1341.32 497.495C1339.55 488.563 1338.67 484.094 1338.67 484.094C1312.42 482.877 1299.29 482.268 1299.29 482.268C1297.26 473.469 1296.24 469.076 1296.24 469.076C1317.09 453.507 1327.51 445.723 1327.51 445.723C1325.61 437.602 1324.66 433.545 1324.66 433.545C1298.14 433.545 1284.87 433.545 1284.87 433.545C1282.03 425.424 1280.61 421.361 1280.61 421.361C1300.37 404.308 1310.25 395.782 1310.25 395.782C1306.87 387.934 1305.18 384.01 1305.18 384.01C1280.68 386.983 1268.43 388.473 1268.43 388.473C1264.5 379.002 1262.54 374.266 1262.54 374.266C1279.86 356.535 1288.53 347.667 1288.53 347.667C1284.74 339.274 1282.84 335.083 1282.84 335.083C1264.47 337.564 1251.88 339.935 1245.08 342.184C1243.16 338.201 1241.06 334.411 1238.79 330.817C1254.36 310.785 1262.13 300.769 1262.13 300.769C1257.67 293.866 1255.43 290.417 1255.43 290.417C1231.34 296.503 1219.3 299.552 1219.3 299.552C1214.02 291.837 1211.38 287.977 1211.38 287.977C1225.59 267 1232.7 256.514 1232.7 256.514C1226.87 248.661 1223.97 244.736 1223.97 244.736C1200.28 254.347 1188.44 259.152 1188.44 259.152C1182.75 252.382 1179.91 249.002 1179.91 249.002C1191.82 226.397 1197.78 215.094 1197.78 215.094C1193.18 209.008 1190.87 205.959 1190.87 205.959C1166.38 215.436 1154.13 220.172 1154.13 220.172C1148.24 214.352 1145.3 211.443 1145.3 211.443C1155.92 188.026 1161.23 176.317 1161.23 176.317C1155.55 170.092 1152.71 166.979 1152.71 166.979C1128.75 180.108 1116.77 186.675 1116.77 186.675C1111.09 180.716 1108.25 177.743 1108.25 177.743C1116.37 153.242 1120.43 140.995 1120.43 140.995C1114.74 134.63 1111.9 131.454 1111.9 131.454C1089.16 146.205 1077.79 153.584 1077.79 153.584C1070.75 148.709 1067.23 146.275 1067.23 146.275C1073.73 120.69 1076.98 107.904 1076.98 107.904C1069.94 103.301 1066.42 101 1066.42 101C1045.45 117.78 1034.95 126.173 1034.95 126.173C1028.32 121.705 1025.01 119.473 1025.01 119.473C1028.93 92.8101 1030.89 79.4786 1030.89 79.4786C1023.72 75.4212 1020.13 73.3867 1020.13 73.3867C1000.91 91.39 991.302 100.392 991.302 100.392C983.993 96.3284 980.342 94.2997 980.342 94.2997C981.698 67.9092 982.37 54.7111 982.37 54.7111C974.795 50.9203 971.004 49.025 971.004 49.025C953.134 68.9236 944.202 78.87 944.202 78.87C936.69 76.2965 932.934 75.0155 932.934 75.0155C932.256 48.1439 931.92 34.7139 931.92 34.7139C923.527 32.2795 919.33 31.0623 919.33 31.0623C903.089 51.7666 894.968 62.1188 894.968 62.1188C886.709 60.2292 882.582 59.2786 882.582 59.2786C880.553 32.8881 879.539 19.69 879.539 19.69C871.551 18.067 867.558 17.2555 867.558 17.2555C853.618 38.2323 846.65 48.7235 846.65 48.7235C837.985 47.6396 833.655 47.1006 833.655 47.1006C829.053 21.5158 826.752 8.7292 826.752 8.7292C817.547 7.37287 812.945 6.7005 812.945 6.7005C801.034 29.5726 795.081 41.0087 795.081 41.0087C788.653 40.7363 785.436 40.603 785.436 40.603C776.504 14.2125 772.035 1.01435 772.035 1.01435C763.306 1.01435 758.941 1.01435 758.941 1.01435C748.925 25.9847 743.917 38.4699 743.917 38.4699C736.88 38.4004 733.362 38.3714 733.362 38.3714C722.737 12.7924 717.422 0 717.422 0C708.49 0.40574 704.021 0.60861 704.021 0.60861C696.306 25.7819 692.452 38.3714 692.452 38.3714C684.192 39.0496 680.065 39.3857 680.065 39.3857C669.238 15.563 663.824 3.65745 663.824 3.65745C654.081 3.92408 649.206 4.0574 649.206 4.0574C643.52 29.3698 640.68 42.023 640.68 42.023C632.02 43.107 627.69 43.6518 627.69 43.6518C615.779 21.3187 609.82 10.1493 609.82 10.1493C599.943 11.9114 594.999 12.7924 594.999 12.7924C592.97 38.099 591.956 50.7522 591.956 50.7522C583.024 52.7867 578.555 53.8011 578.555 53.8011C562.72 31.7404 554.802 20.7043 554.802 20.7043C545.325 23.956 540.589 25.579 540.589 25.579C540.184 51.4304 539.981 64.3561 539.981 64.3561C532.944 66.5239 529.426 67.602 529.426 67.602C511.017 47.7092 501.812 37.7628 501.812 37.7628C493.692 40.603 489.634 42.023 489.634 42.023C490.04 68.8251 490.243 82.2203 490.243 82.2203C483.879 85.472 480.696 87.0949 480.696 87.0949C462.021 68.4193 452.683 59.0815 452.683 59.0815C444.423 62.5998 440.296 64.3561 440.296 64.3561C443.409 90.48 444.968 103.539 444.968 103.539C438.065 107.063 434.61 108.819 434.61 108.819C414.172 91.9059 403.954 83.4433 403.954 83.4433C395.566 88.857 391.37 91.5639 391.37 91.5639C397.456 116.604 400.505 129.124 400.505 129.124C393.468 133.726 389.95 136.027 389.95 136.027C369.106 120.325 358.679 112.477 358.679 112.477C350.425 118.024 346.298 120.8 346.298 120.8C353.88 144.623 357.664 156.534 357.664 156.534C351.034 161.809 347.718 164.452 347.718 164.452C325.657 151.324 314.627 144.756 314.627 144.756C307.046 150.848 303.261 153.891 303.261 153.891C312.459 177.581 317.062 189.422 317.062 189.422C311.242 195.781 308.332 198.963 308.332 198.963C284.915 187.324 273.207 181.505 273.207 181.505C266.309 188.814 262.855 192.466 262.855 192.466C274.633 214.799 280.522 225.968 280.522 225.968C275.102 232.193 272.395 235.306 272.395 235.306C248.978 225.829 237.27 221.093 237.27 221.093C231.045 229.214 227.932 233.271 227.932 233.271C240.927 253.442 247.425 263.522 247.425 263.522C242.278 271.104 239.71 274.894 239.71 274.894C215.209 266.907 202.962 262.914 202.962 262.914C197.276 271.712 194.435 276.112 194.435 276.112C210.3 294.445 217.951 303.789 217.377 304.125C212.636 312.518 210.271 316.715 210.271 316.715C185.503 311.846 173.117 309.406 173.117 309.406C168.514 317.526 166.213 321.589 166.213 321.589C183.741 338.833 192.065 347.765 191.184 348.386C187.665 356.645 185.903 360.772 185.903 360.772C159.513 357.387 146.315 355.695 146.315 355.695C142.796 364.633 141.034 369.096 141.034 369.096C159.577 386.421 168.851 395.086 168.851 395.086C164.927 403.473 162.962 407.67 162.962 407.67C137.655 406.319 124.996 405.641 124.996 405.641C121.75 414.034 120.127 418.231 120.127 418.231C140.02 433.794 149.966 441.578 149.966 441.578C147.804 449.971 146.72 454.162 146.72 454.162C120.463 455.246 107.335 455.791 107.335 455.791C104.761 465.262 103.474 469.997 103.474 469.997C124.724 484.21 135.348 491.316 135.348 491.316C133.725 499.164 132.914 503.094 132.914 503.094C106.923 506.473 93.9337 508.166 93.9337 508.166C92.444 516.692 91.6963 520.958 91.6963 520.958C114.708 533.409 126.213 539.634 126.213 539.634C131.354 539.634 133.928 539.634 133.928 539.634C206.747 506.479 255.743 482.454 280.91 467.563C309.08 433.701 344.136 413.269 386.072 406.256C417.813 398.709 484.673 339.83 586.658 229.626C631.492 267.8 669.661 296.086 701.164 314.489C766.836 337.761 821.112 369.698 863.981 410.313C871.905 415.982 884.9 421.262 902.961 426.148C930.204 406.395 954.021 375.669 974.424 333.976Z" fill="white"></path></svg> 