<?xml version="1.0" encoding="UTF-8"?> <svg xmlns="http://www.w3.org/2000/svg" width="180" height="180" viewBox="0 0 180 180" fill="none"><path fill-rule="evenodd" clip-rule="evenodd" d="M114.551 110.286C112.413 109.824 110.071 108.905 107.524 107.529C98.1543 101.046 90.5301 96.8304 84.6511 94.8845C80.6899 93.0994 76.2258 89.8713 71.2581 85.2002C62.9232 95.0412 55.4317 101.856 48.7837 105.647C46.383 106.639 44.0406 107.401 41.7558 107.933C37.7906 108.672 33.7687 111.586 29.69 116.676C22.6238 119.829 15.8174 122.834 9.27002 125.688C22.7133 122.023 30.6029 119.557 32.9381 118.29C35.0566 116.58 37.2006 114.316 39.3695 111.498C42.9806 111.847 46.052 112.833 48.5846 114.456C51.3722 111.996 53.4499 110.023 54.817 108.538C54.1215 113.655 52.6409 117.556 50.3745 120.241C56.1696 115.595 59.9925 112.187 61.844 110.018C63.215 107.722 64.8723 103.777 66.8165 98.1806C68.0428 95.9454 69.1924 95.3178 70.2644 96.2971C70.5746 102.638 71.7242 106.472 73.7116 107.798C75.8637 110.081 76.7255 113.489 76.2978 118.021C77.4793 119.466 78.7608 120.789 80.1431 121.989C80.0719 120.694 79.4316 118.497 78.2204 115.398C78.5714 113.094 79.1901 111.188 80.0759 109.681C76.5552 104.795 75.2513 100.828 76.1651 97.7769C77.0412 96.5929 83.3176 100.785 94.9933 110.354C93.8062 107.168 92.5471 103.828 91.2144 100.333C100.782 106.892 106.042 111.847 106.994 115.197C108.843 115.304 110.39 114.878 111.634 113.919C110.92 116.193 108.931 118.727 105.667 121.518C112.225 119.406 116.446 117.366 118.33 115.398C119.623 114.056 121.081 112.285 122.706 110.085C127.915 112.057 132.799 115.353 137.358 119.972C140.795 123.371 145.414 125.927 151.214 127.639C149.926 126.361 149.085 124.994 148.695 123.536C157.646 127.998 164.939 130.487 170.573 131.001C144.704 119.103 129.102 109.082 123.767 100.938C121.025 104.977 117.953 108.094 114.551 110.286Z" fill="#474A51"></path><path fill-rule="evenodd" clip-rule="evenodd" d="M125.527 95.1129C126.818 96.2968 127.463 96.8892 127.463 96.8892C137.622 105.53 151.996 114.602 170.585 124.106C171.481 124.106 171.93 124.106 171.93 124.106C171.724 121.493 171.621 120.186 171.621 120.186C174.627 118.506 176.13 117.666 176.13 117.666C175.887 116.434 175.765 115.817 175.765 115.817C172.144 115.65 170.333 115.566 170.333 115.566C170.053 114.352 169.913 113.746 169.913 113.746C172.788 111.599 174.226 110.525 174.226 110.525C173.964 109.405 173.833 108.846 173.833 108.846C170.175 108.846 168.345 108.846 168.345 108.846C167.953 107.726 167.757 107.165 167.757 107.165C170.483 104.813 171.845 103.637 171.845 103.637C171.379 102.555 171.145 102.014 171.145 102.014C167.766 102.424 166.077 102.629 166.077 102.629C165.536 101.323 165.265 100.67 165.265 100.67C167.654 98.2243 168.849 97.0012 168.849 97.0012C168.326 95.8436 168.065 95.2656 168.065 95.2656C165.531 95.6077 163.795 95.9347 162.857 96.2449C162.592 95.6957 162.303 95.1728 161.989 94.6772C164.136 91.9144 165.209 90.5329 165.209 90.5329C164.593 89.5808 164.285 89.1051 164.285 89.1051C160.962 89.9445 159.301 90.365 159.301 90.365C158.573 89.301 158.209 88.7686 158.209 88.7686C160.169 85.8754 161.149 84.4292 161.149 84.4292C160.346 83.346 159.944 82.8048 159.944 82.8048C156.678 84.1303 155.045 84.793 155.045 84.793C154.26 83.8593 153.869 83.3932 153.869 83.3932C155.512 80.2754 156.333 78.7165 156.333 78.7165C155.698 77.8771 155.38 77.4566 155.38 77.4566C152.002 78.7637 150.312 79.4168 150.312 79.4168C149.501 78.6142 149.095 78.2129 149.095 78.2129C150.56 74.9831 151.292 73.3683 151.292 73.3683C150.509 72.5097 150.116 72.0804 150.116 72.0804C146.812 73.8911 145.161 74.7969 145.161 74.7969C144.376 73.975 143.985 73.5649 143.985 73.5649C145.105 70.1857 145.664 68.4965 145.664 68.4965C144.88 67.6187 144.488 67.1807 144.488 67.1807C141.352 69.2152 139.784 70.2329 139.784 70.2329C138.813 69.5606 138.328 69.2248 138.328 69.2248C139.224 65.6961 139.672 63.9326 139.672 63.9326C138.701 63.2978 138.216 62.9804 138.216 62.9804C135.323 65.2948 133.876 66.4524 133.876 66.4524C132.961 65.836 132.504 65.5282 132.504 65.5282C133.045 61.8508 133.315 60.0121 133.315 60.0121C132.326 59.4525 131.832 59.1719 131.832 59.1719C129.181 61.655 127.855 62.8965 127.855 62.8965C126.847 62.3361 126.343 62.0563 126.343 62.0563C126.53 58.4165 126.623 56.5962 126.623 56.5962C125.578 56.0733 125.056 55.8119 125.056 55.8119C122.591 58.5564 121.359 59.9282 121.359 59.9282C120.323 59.5732 119.805 59.3966 119.805 59.3966C119.711 55.6904 119.665 53.8381 119.665 53.8381C118.507 53.5023 117.929 53.3345 117.929 53.3345C115.689 56.19 114.569 57.6178 114.569 57.6178C113.429 57.3572 112.86 57.2261 112.86 57.2261C112.58 53.5863 112.44 51.766 112.44 51.766C111.339 51.5421 110.788 51.4302 110.788 51.4302C108.865 54.3234 107.904 55.7703 107.904 55.7703C106.709 55.6208 106.112 55.5465 106.112 55.5465C105.477 52.0178 105.16 50.2542 105.16 50.2542C103.891 50.0672 103.256 49.9744 103.256 49.9744C101.613 53.129 100.792 54.7063 100.792 54.7063C99.9053 54.6687 99.4617 54.6503 99.4617 54.6503C98.2297 51.0105 97.6134 49.1902 97.6134 49.1902C96.4094 49.1902 95.8074 49.1902 95.8074 49.1902C94.426 52.6342 93.7353 54.3561 93.7353 54.3561C92.7648 54.3465 92.2795 54.3425 92.2795 54.3425C90.8142 50.8146 90.0811 49.0503 90.0811 49.0503C88.8492 49.1063 88.2328 49.1342 88.2328 49.1342C87.1688 52.6062 86.6371 54.3425 86.6371 54.3425C85.4979 54.4361 84.9287 54.4824 84.9287 54.4824C83.4354 51.1968 82.6887 49.5547 82.6887 49.5547C81.3449 49.5915 80.6726 49.6099 80.6726 49.6099C79.8883 53.101 79.4966 54.8462 79.4966 54.8462C78.3022 54.9957 77.7051 55.0708 77.7051 55.0708C76.0622 51.9906 75.2404 50.4501 75.2404 50.4501C73.8782 50.6931 73.1962 50.8146 73.1962 50.8146C72.9164 54.305 72.7765 56.0501 72.7765 56.0501C71.5446 56.3307 70.9283 56.4706 70.9283 56.4706C68.7442 53.428 67.6522 51.9059 67.6522 51.9059C66.3451 52.3544 65.692 52.5782 65.692 52.5782C65.636 56.1437 65.608 57.9264 65.608 57.9264C64.6375 58.2254 64.1522 58.3741 64.1522 58.3741C61.6132 55.6304 60.3437 54.2586 60.3437 54.2586C59.2237 54.6503 58.6641 54.8462 58.6641 54.8462C58.7201 58.5428 58.7481 60.3903 58.7481 60.3903C57.8703 60.8387 57.4314 61.0626 57.4314 61.0626C54.8556 58.4868 53.5677 57.1989 53.5677 57.1989C52.4286 57.6842 51.8594 57.9264 51.8594 57.9264C52.2886 61.5295 52.5037 63.3306 52.5037 63.3306C51.5516 63.8166 51.0751 64.0589 51.0751 64.0589C48.2563 61.7261 46.8469 60.5589 46.8469 60.5589C45.6901 61.3056 45.1113 61.679 45.1113 61.679C45.9507 65.1325 46.3712 66.8593 46.3712 66.8593C45.4007 67.494 44.9155 67.8114 44.9155 67.8114C42.0407 65.6457 40.6025 64.5633 40.6025 64.5633C39.4641 65.3284 38.8949 65.7113 38.8949 65.7113C39.9406 68.997 40.4626 70.6398 40.4626 70.6398C39.5481 71.3673 39.0908 71.7318 39.0908 71.7318C36.0481 69.9211 34.5268 69.0154 34.5268 69.0154C33.4812 69.8556 32.9591 70.2753 32.9591 70.2753C34.2278 73.5426 34.8626 75.1758 34.8626 75.1758C34.06 76.0528 33.6586 76.4917 33.6586 76.4917C30.4289 74.8864 28.8141 74.0838 28.8141 74.0838C27.8627 75.0919 27.3863 75.5955 27.3863 75.5955C29.0107 78.6757 29.823 80.2162 29.823 80.2162C29.0755 81.0748 28.7021 81.5041 28.7021 81.5041C25.4724 80.197 23.8576 79.5439 23.8576 79.5439C22.999 80.6639 22.5697 81.2235 22.5697 81.2235C24.362 84.0056 25.2582 85.3958 25.2582 85.3958C24.5483 86.4414 24.1941 86.9643 24.1941 86.9643C20.8149 85.8626 19.1257 85.3118 19.1257 85.3118C18.3415 86.5254 17.9498 87.1321 17.9498 87.1321C20.1378 89.6607 21.1931 90.9494 21.1139 90.9958C20.46 92.1534 20.1338 92.7322 20.1338 92.7322C16.7178 92.0606 15.0094 91.7241 15.0094 91.7241C14.3747 92.8441 14.0573 93.4045 14.0573 93.4045C16.4748 95.7828 17.6228 97.0147 17.5013 97.1003C17.016 98.2395 16.773 98.8087 16.773 98.8087C13.1332 98.3418 11.3129 98.1084 11.3129 98.1084C10.8276 99.3411 10.5846 99.9567 10.5846 99.9567C13.142 102.346 14.4211 103.541 14.4211 103.541C13.8798 104.698 13.6088 105.277 13.6088 105.277C10.1185 105.091 8.37253 104.997 8.37253 104.997C7.92485 106.155 7.70101 106.733 7.70101 106.733C10.4447 108.88 11.8165 109.954 11.8165 109.954C11.5183 111.111 11.3688 111.689 11.3688 111.689C7.74738 111.839 5.93666 111.914 5.93666 111.914C5.58171 113.22 5.40423 113.873 5.40423 113.873C8.33496 115.833 9.80032 116.814 9.80032 116.814C9.57648 117.896 9.46456 118.438 9.46456 118.438C5.8799 118.904 4.08837 119.137 4.08837 119.137C3.88291 120.313 3.77979 120.902 3.77979 120.902C6.95354 122.619 8.54042 123.478 8.54042 123.478C9.24951 123.478 9.60446 123.478 9.60446 123.478C19.6478 118.905 26.4054 115.591 29.8765 113.537C33.7618 108.867 38.5967 106.049 44.3806 105.082C48.7583 104.041 57.9798 95.9203 72.0459 80.7207C78.2295 85.9857 83.4938 89.887 87.8387 92.4252C96.8963 95.6349 104.382 100.04 110.295 105.641C111.388 106.423 113.18 107.152 115.671 107.825C119.428 105.101 122.713 100.863 125.527 95.1129Z" fill="#474A51"></path></svg> 