<svg xmlns="http://www.w3.org/2000/svg" viewBox="0 0 100 100" fill-rule="evenodd"><rect x="0" y="0" width="100" height="100" fill="#008afe" rx="50" ry="50"></rect><g class="t-group-origins" style="transform-origin:center;transform:scale(0.58);"><path d="M91.44 22.74a1.5 1.5 0 0 0-1.27-.29l-40 9a1.46 1.46 0 0 0-.26.11h-.12l-39-8.94A1.5 1.5 0 0 0 9 24v51.91a1.5 1.5 0 0 0 1.06 1.43L49 89.43a1.41 1.41 0 0 0 .86 0 1.39 1.39 0 0 0 1.07.09l40-12.12A1.5 1.5 0 0 0 92 76V23.91a1.5 1.5 0 0 0-.56-1.17ZM12 25.88l37 8.49v51.92L12 74.81Zm77 49L52 86.07v-52l37-8.29Z" stroke-width="1" stroke="#ffffff" fill="#ffffff" stroke-width-old="0"></path><path d="M58.15 49.13a1.5 1.5 0 0 0 .42-.06l24.12-6.94a1.5 1.5 0 0 0-.83-2.88l-24.12 6.94a1.5 1.5 0 0 0 .41 2.94Zm0 9.06a1.5 1.5 0 0 0 .42-.06l24.12-6.94a1.5 1.5 0 0 0-.83-2.88l-24.12 6.93a1.5 1.5 0 0 0 .41 2.94Zm0 9.05a1.5 1.5 0 0 0 .42-.06l24.12-6.94a1.5 1.5 0 0 0-.83-2.88L57.74 64.3a1.5 1.5 0 0 0 .41 2.94Z" stroke-width="1" stroke="#ffffff" fill="#ffffff" stroke-width-old="0"></path></g></svg>
