<svg xmlns="http://www.w3.org/2000/svg" viewBox="0 0 100 100" fill-rule="evenodd"><rect x="0" y="0" width="100" height="100" fill="#008afe" rx="50" ry="50"></rect><g class="t-group-origins" style="transform-origin:center;transform:scale(0.58);"><path d="M54.85 40.543a1.5 1.5 0 0 0-2.117.132L31.942 64.229a1.5 1.5 0 0 0 2.249 1.985L54.982 42.66a1.5 1.5 0 0 0-.132-2.117zM35.893 50.725a6.837 6.837 0 0 0 3.678-3.757 6.835 6.835 0 0 0-.051-5.261 6.827 6.827 0 0 0-3.756-3.684c-3.511-1.417-7.525.292-8.95 3.811a6.811 6.811 0 0 0 .06 5.264 6.85 6.85 0 0 0 3.763 3.681 6.827 6.827 0 0 0 5.256-.054zm-6.262-4.807a3.832 3.832 0 0 1-.035-2.96 3.894 3.894 0 0 1 3.605-2.433c.48 0 .969.09 1.441.281.96.386 1.711 1.123 2.117 2.075s.415 2.005.028 2.965a3.853 3.853 0 0 1-2.073 2.119c-.951.405-2 .416-2.957.031a3.868 3.868 0 0 1-2.126-2.078z" stroke-width="1" stroke="#ffffff" fill="#ffffff" stroke-width-old="0"></path><path d="M86.57 43.795a1.5 1.5 0 0 0-1.546-1.457l-8.622.263 1.946-6.125a1.502 1.502 0 0 0-.976-1.884L63.13 30.067 60.703 3.913c-.072-.771-.805-1.361-1.58-1.361a1.5 1.5 0 0 0-1.405.975l-8.294 22.186-24.732-7.859a1.504 1.504 0 0 0-1.884.976L6.069 71.508a1.5 1.5 0 0 0 .976 1.884l26.876 8.541.398 14.06c.023.813.69 1.458 1.499 1.458h.043l50.682-1.429A1.503 1.503 0 0 0 88 94.48l-1.43-50.685zM58.305 10.526l1.721 18.554-7.739-2.459 6.018-16.095zM25.214 21.167l49.821 15.83-15.83 49.821L9.383 70.986l15.831-49.819zm12.062 73.239-.326-11.513 22.776 7.238a1.499 1.499 0 0 0 1.883-.976l13.829-43.523 8.174-.25 1.346 47.68-47.682 1.344z" stroke-width="1" stroke="#ffffff" fill="#ffffff" stroke-width-old="0"></path><path d="M53.864 58.533a6.827 6.827 0 0 0-5.265.051 6.832 6.832 0 0 0-3.685 3.758 6.82 6.82 0 0 0 .055 5.26 6.827 6.827 0 0 0 3.761 3.681c.83.335 1.7.502 2.568.502.913 0 1.825-.185 2.689-.553a6.826 6.826 0 0 0 3.684-3.759 6.83 6.83 0 0 0-.051-5.259 6.818 6.818 0 0 0-3.756-3.681zm1.025 7.82a3.849 3.849 0 0 1-2.075 2.118 3.842 3.842 0 0 1-2.964.028 3.848 3.848 0 0 1-2.121-2.075 3.841 3.841 0 0 1-.031-2.962 3.85 3.85 0 0 1 2.077-2.119 3.861 3.861 0 0 1 2.969-.028 3.847 3.847 0 0 1 2.117 2.073c.404.951.414 2.004.028 2.965z" stroke-width="1" stroke="#ffffff" fill="#ffffff" stroke-width-old="0"></path></g></svg>
